<svg width="601" height="78" viewBox="0 0 601 78" fill="none"
    xmlns="http://www.w3.org/2000/svg">
    <path d="M116.305 64V19.8895H100.733V13.9705H137.938V19.8895H122.365V64H116.305ZM153.347 64.8456C149.823 64.8456 146.77 64.047 144.186 62.4498C141.65 60.8526 139.677 58.5978 138.267 55.6852C136.905 52.7258 136.224 49.273 136.224 45.327C136.224 41.381 136.905 37.9518 138.267 35.0393C139.677 32.1268 141.626 29.8719 144.116 28.2747C146.653 26.6306 149.636 25.8085 153.065 25.8085C156.306 25.8085 159.172 26.5836 161.661 28.1338C164.151 29.637 166.077 31.8449 167.44 34.7574C168.849 37.6699 169.553 41.2166 169.553 45.3975V47.1591H142.425C142.66 51.1521 143.717 54.1585 145.596 56.1785C147.522 58.1985 150.105 59.2085 153.347 59.2085C155.789 59.2085 157.786 58.6447 159.336 57.5173C160.933 56.3429 162.037 54.8162 162.648 52.9371L168.99 53.4304C168.003 56.7657 166.124 59.5138 163.353 61.6747C160.628 63.7886 157.293 64.8456 153.347 64.8456ZM142.425 41.9447H163.071C162.789 38.3276 161.732 35.6734 159.9 33.9823C158.115 32.2912 155.836 31.4456 153.065 31.4456C150.199 31.4456 147.827 32.3381 145.948 34.1232C144.116 35.8613 142.942 38.4685 142.425 41.9447ZM188.611 64.8456C184.759 64.8456 181.682 63.953 179.38 62.1679C177.125 60.3829 175.998 57.8931 175.998 54.6987C175.998 51.5044 176.937 48.9912 178.816 47.1591C180.695 45.327 183.678 44.0352 187.765 43.2836L201.012 40.8173C201.012 37.6699 200.261 35.3211 198.758 33.7709C197.301 32.2207 195.093 31.4456 192.134 31.4456C189.55 31.4456 187.507 32.0328 186.003 33.2072C184.5 34.3346 183.467 35.9788 182.903 38.1397L176.632 37.6464C177.336 34.1232 179.028 31.2812 181.705 29.1203C184.43 26.9124 187.906 25.8085 192.134 25.8085C196.925 25.8085 200.59 27.1708 203.126 29.8954C205.663 32.573 206.931 36.2841 206.931 41.0287V56.4604C206.931 57.3059 207.072 57.9166 207.354 58.2924C207.683 58.6213 208.2 58.7857 208.904 58.7857H210.384V64C210.196 64.047 209.891 64.0705 209.468 64.0705C209.045 64.1174 208.599 64.1409 208.129 64.1409C206.438 64.1409 205.052 63.8826 203.972 63.3658C202.938 62.8021 202.187 61.9566 201.717 60.8291C201.247 59.6547 201.012 58.128 201.012 56.249L201.717 56.3899C201.388 57.9871 200.59 59.4433 199.321 60.7587C198.053 62.027 196.479 63.037 194.6 63.7886C192.721 64.4933 190.725 64.8456 188.611 64.8456ZM189.174 59.6312C191.664 59.6312 193.778 59.1615 195.516 58.222C197.301 57.2355 198.664 55.9201 199.603 54.276C200.543 52.5848 201.012 50.7058 201.012 48.6388V45.9612L188.893 48.2161C186.356 48.6858 184.594 49.4139 183.608 50.4004C182.668 51.34 182.198 52.5848 182.198 54.135C182.198 55.8732 182.809 57.2355 184.031 58.222C185.299 59.1615 187.013 59.6312 189.174 59.6312ZM217.069 64V26.654H222.495L222.706 36.0962L221.861 35.8144C222.284 33.7474 223.012 31.9858 224.045 30.5296C225.126 29.0263 226.441 27.8754 227.991 27.0768C229.541 26.2313 231.256 25.8085 233.135 25.8085C236.377 25.8085 239.007 26.701 241.027 28.4861C243.094 30.2712 244.386 32.7609 244.903 35.9553L243.775 35.8848C244.151 33.7239 244.832 31.9154 245.819 30.4591C246.852 28.9559 248.168 27.805 249.765 27.0064C251.362 26.2078 253.194 25.8085 255.261 25.8085C257.939 25.8085 260.193 26.3722 262.025 27.4996C263.858 28.5801 265.243 30.1772 266.183 32.2912C267.122 34.4051 267.592 36.9653 267.592 39.9718V64H261.673V41.2401C261.673 37.8578 261.015 35.3211 259.7 33.63C258.385 31.8919 256.435 31.0228 253.852 31.0228C252.113 31.0228 250.587 31.4456 249.271 32.2912C248.003 33.1367 247.017 34.3581 246.312 35.9553C245.607 37.5055 245.255 39.408 245.255 41.6629V64H239.336V41.6629C239.336 38.3276 238.749 35.7204 237.574 33.8414C236.4 31.9623 234.427 31.0228 231.655 31.0228C229.917 31.0228 228.391 31.4456 227.075 32.2912C225.807 33.1367 224.797 34.3581 224.045 35.9553C223.341 37.5525 222.988 39.455 222.988 41.6629V64H217.069ZM288.869 64V13.9705H320.296V19.8895H294.929V36.0258H319.45V41.8038H294.929V58.081H320.86V64H288.869ZM330.481 64V26.654H335.906L336.118 36.1667L335.413 35.5325C335.883 33.3246 336.705 31.5161 337.879 30.1068C339.054 28.6505 340.463 27.5701 342.107 26.8654C343.798 26.1608 345.607 25.8085 347.533 25.8085C350.399 25.8085 352.747 26.4426 354.579 27.711C356.459 28.9794 357.844 30.694 358.737 32.8549C359.676 34.9688 360.146 37.3411 360.146 39.9718V64H354.227V41.6629C354.227 39.3611 353.945 37.435 353.382 35.8848C352.865 34.2877 352.019 33.0898 350.845 32.2912C349.67 31.4456 348.144 31.0228 346.265 31.0228C343.399 31.0228 341.027 31.9388 339.148 33.7709C337.316 35.556 336.4 38.1867 336.4 41.6629V64H330.481ZM384.198 64.8456C380.863 64.8456 378.021 64.3054 375.672 63.2249C373.37 62.1445 371.562 60.6647 370.246 58.7857C368.978 56.8596 368.25 54.6753 368.062 52.2325L374.263 51.8097C374.638 54.0646 375.601 55.8732 377.152 57.2355C378.702 58.5508 381.051 59.2085 384.198 59.2085C386.735 59.2085 388.755 58.8092 390.258 58.0106C391.808 57.165 392.583 55.8262 392.583 53.9941C392.583 53.0076 392.348 52.1855 391.879 51.5279C391.409 50.8702 390.493 50.3065 389.131 49.8367C387.768 49.32 385.748 48.8267 383.071 48.357C379.5 47.6993 376.682 46.9007 374.615 45.9612C372.595 44.9747 371.139 43.7768 370.246 42.3675C369.401 40.9113 368.978 39.1966 368.978 37.2237C368.978 33.8884 370.199 31.1637 372.642 29.0498C375.085 26.8889 378.561 25.8085 383.071 25.8085C386.124 25.8085 388.684 26.3722 390.751 27.4996C392.865 28.5801 394.509 30.0363 395.684 31.8684C396.905 33.6535 397.704 35.6265 398.079 37.7874L391.879 38.2102C391.597 36.8948 391.08 35.7439 390.328 34.7574C389.577 33.7239 388.59 32.9253 387.369 32.3616C386.148 31.7509 384.691 31.4456 383 31.4456C380.323 31.4456 378.35 31.9623 377.081 32.9958C375.813 34.0293 375.179 35.3446 375.179 36.9418C375.179 38.1632 375.461 39.1732 376.024 39.9718C376.635 40.7234 377.598 41.3575 378.913 41.8743C380.229 42.344 381.99 42.7668 384.198 43.1426C388.003 43.8003 390.963 44.5989 393.077 45.5384C395.19 46.4779 396.67 47.6289 397.516 48.9912C398.361 50.3535 398.784 52.0211 398.784 53.9941C398.784 56.2959 398.126 58.2689 396.811 59.9131C395.543 61.5103 393.805 62.7317 391.597 63.5772C389.436 64.4228 386.97 64.8456 384.198 64.8456ZM421.449 64.8456C417.926 64.8456 414.872 64.047 412.288 62.4498C409.752 60.8526 407.779 58.5978 406.369 55.6852C405.007 52.7258 404.326 49.273 404.326 45.327C404.326 41.381 405.007 37.9518 406.369 35.0393C407.779 32.1268 409.728 29.8719 412.218 28.2747C414.755 26.6306 417.738 25.8085 421.167 25.8085C424.408 25.8085 427.274 26.5836 429.764 28.1338C432.253 29.637 434.179 31.8449 435.542 34.7574C436.951 37.6699 437.656 41.2166 437.656 45.3975V47.1591H410.527C410.762 51.1521 411.819 54.1585 413.698 56.1785C415.624 58.1985 418.207 59.2085 421.449 59.2085C423.892 59.2085 425.888 58.6447 427.438 57.5173C429.035 56.3429 430.139 54.8162 430.75 52.9371L437.092 53.4304C436.105 56.7657 434.226 59.5138 431.455 61.6747C428.73 63.7886 425.395 64.8456 421.449 64.8456ZM410.527 41.9447H431.173C430.891 38.3276 429.834 35.6734 428.002 33.9823C426.217 32.2912 423.939 31.4456 421.167 31.4456C418.301 31.4456 415.929 32.3381 414.05 34.1232C412.218 35.8613 411.044 38.4685 410.527 41.9447ZM445.673 64V26.654H451.099L451.31 36.0962L450.465 35.8144C450.887 33.7474 451.615 31.9858 452.649 30.5296C453.729 29.0263 455.045 27.8754 456.595 27.0768C458.145 26.2313 459.86 25.8085 461.739 25.8085C464.98 25.8085 467.611 26.701 469.631 28.4861C471.698 30.2712 472.99 32.7609 473.506 35.9553L472.379 35.8848C472.755 33.7239 473.436 31.9154 474.422 30.4591C475.456 28.9559 476.771 27.805 478.368 27.0064C479.966 26.2078 481.798 25.8085 483.865 25.8085C486.542 25.8085 488.797 26.3722 490.629 27.4996C492.461 28.5801 493.847 30.1772 494.786 32.2912C495.726 34.4051 496.196 36.9653 496.196 39.9718V64H490.277V41.2401C490.277 37.8578 489.619 35.3211 488.304 33.63C486.988 31.8919 485.039 31.0228 482.455 31.0228C480.717 31.0228 479.19 31.4456 477.875 32.2912C476.607 33.1367 475.62 34.3581 474.916 35.9553C474.211 37.5055 473.859 39.408 473.859 41.6629V64H467.94V41.6629C467.94 38.3276 467.352 35.7204 466.178 33.8414C465.004 31.9623 463.031 31.0228 460.259 31.0228C458.521 31.0228 456.994 31.4456 455.679 32.2912C454.411 33.1367 453.401 34.3581 452.649 35.9553C451.944 37.5525 451.592 39.455 451.592 41.6629V64H445.673ZM523.901 64.8456C521.318 64.8456 519.016 64.2819 516.996 63.1544C514.976 61.98 513.426 60.3829 512.345 58.3629L512.134 64H506.779V13.9705H512.698V31.8684C513.637 30.3182 515.093 28.9324 517.066 27.711C519.039 26.4426 521.318 25.8085 523.901 25.8085C527.19 25.8085 530.032 26.6071 532.428 28.2043C534.823 29.8014 536.679 32.0563 537.994 34.9688C539.31 37.8813 539.967 41.3341 539.967 45.327C539.967 49.32 539.31 52.7727 537.994 55.6852C536.679 58.5978 534.823 60.8526 532.428 62.4498C530.032 64.047 527.19 64.8456 523.901 64.8456ZM523.549 59.2085C526.696 59.2085 529.186 57.9636 531.018 55.4739C532.85 52.9841 533.766 49.6018 533.766 45.327C533.766 41.0052 532.85 37.623 531.018 35.1802C529.186 32.6905 526.743 31.4456 523.69 31.4456C521.388 31.4456 519.415 32.0093 517.771 33.1367C516.127 34.2172 514.858 35.7909 513.966 37.8578C513.12 39.9248 512.698 42.4145 512.698 45.327C512.698 48.1456 513.12 50.6118 513.966 52.7258C514.858 54.7927 516.103 56.3899 517.701 57.5173C519.345 58.6447 521.294 59.2085 523.549 59.2085ZM548.843 64V13.9705H554.762V64H548.843ZM580.75 64.8456C577.227 64.8456 574.173 64.047 571.59 62.4498C569.053 60.8526 567.08 58.5978 565.671 55.6852C564.308 52.7258 563.627 49.273 563.627 45.327C563.627 41.381 564.308 37.9518 565.671 35.0393C567.08 32.1268 569.029 29.8719 571.519 28.2747C574.056 26.6306 577.039 25.8085 580.468 25.8085C583.709 25.8085 586.575 26.5836 589.065 28.1338C591.554 29.637 593.48 31.8449 594.843 34.7574C596.252 37.6699 596.957 41.2166 596.957 45.3975V47.1591H569.828C570.063 51.1521 571.12 54.1585 572.999 56.1785C574.925 58.1985 577.509 59.2085 580.75 59.2085C583.193 59.2085 585.189 58.6447 586.739 57.5173C588.337 56.3429 589.44 54.8162 590.051 52.9371L596.393 53.4304C595.406 56.7657 593.527 59.5138 590.756 61.6747C588.031 63.7886 584.696 64.8456 580.75 64.8456ZM569.828 41.9447H590.474C590.192 38.3276 589.135 35.6734 587.303 33.9823C585.518 32.2912 583.24 31.4456 580.468 31.4456C577.603 31.4456 575.23 32.3381 573.351 34.1232C571.519 35.8613 570.345 38.4685 569.828 41.9447Z" fill="black"/>
    <path d="M34.7931 38.8087C32.5733 40.9863 30.9774 42.8799 29.8898 44.7335C28.5417 47.0311 27.9698 49.2746 27.9698 51.9337C27.9699 57.1637 33.299 61.5072 40.2814 61.6729C45.5124 61.5829 50.3679 59.9553 54.4366 57.1837C49.5774 53.0563 44.3043 48.4209 39.5968 43.7813C37.9088 42.1177 36.2926 40.4521 34.7931 38.8087ZM36.7159 16.3351C33.7031 16.3351 31.2853 19.0368 31.2853 22.5118C31.2853 23.6195 31.6456 24.8958 32.3156 26.3097C32.9849 27.7221 33.9578 29.2604 35.1691 30.8868C35.2245 30.9612 35.2816 31.0347 35.338 31.1095C36.1117 30.4073 36.9315 29.6356 37.7072 28.8233C38.6863 27.7979 39.5919 26.7141 40.2521 25.6349C40.9136 24.5533 41.3174 23.4938 41.3175 22.5118C41.3175 20.77 40.7909 19.2191 39.9503 18.1085C39.1099 16.9981 37.9643 16.3351 36.7159 16.3351ZM39.7404 77.086H39.5343C17.6216 77.086 0.2052 59.672 0.2052 37.8438C0.205375 17.5044 16.6302 1.42017 37.296 1.42001C56.7915 1.42001 72.3976 16.1692 72.3976 33.9493C72.3975 43.0419 68.6594 51.2586 62.6183 57.1495C64.374 58.6136 66.0264 59.9827 67.5157 61.2237L67.6974 61.3751L67.5226 61.5343L63.8761 64.8487L63.7433 64.9698L63.6056 64.8546C62.051 63.5593 60.3165 62.1215 58.4669 60.5763C53.3101 64.1611 47.0555 66.2997 40.2833 66.3946H40.2765C30.1881 66.2277 21.9221 59.8829 21.922 51.9337C21.922 45.9528 24.5816 41.1234 31.3126 34.755C30.6443 33.9197 30.0169 33.0964 29.4406 32.2872C26.8571 28.66 25.2375 25.2944 25.2374 22.5118C25.2374 16.421 30.3133 11.6144 36.7159 11.6144C42.7208 11.6144 47.3654 16.5202 47.3654 22.5118C47.3653 24.0303 46.8309 25.5622 46.005 27.0343C45.1786 28.5072 44.054 29.9318 42.8566 31.2384C41.4765 32.7443 39.9845 34.1038 38.7365 35.2061C40.5299 37.2074 42.5566 39.2784 44.713 41.3634C49.0855 45.5909 53.9859 49.8654 58.5431 53.7237C63.3673 48.743 66.3496 41.7932 66.3497 33.9493C66.3497 18.4897 53.5196 6.14169 37.296 6.14169C20.0072 6.14185 6.25322 20.1348 6.25305 37.8438C6.25305 57.1308 21.0049 72.3644 39.5343 72.3644H39.7404V77.086Z" fill="black" stroke="black" stroke-width="0.411244"/>
</svg>
